<svg xmlns="http://www.w3.org/2000/svg" width="500" height="500" viewBox="0 0 500 500">
<g>
<path d="M 243.50 484.97 C241.30,483.84 234.55,480.65 228.50,477.89 C206.44,467.79 176.28,449.34 157.15,434.23 C144.78,424.45 122.20,402.37 113.09,391.13 C97.63,372.05 83.00,346.07 75.14,323.74 C70.71,311.16 65.06,282.26 63.98,266.68 C63.48,259.43 63.05,215.90 63.04,169.94 L 63.00 86.38 L 77.75 84.66 C133.16,78.18 184.86,59.25 237.43,26.16 L 250.35 18.02 L 253.43 19.97 C255.12,21.05 258.30,22.89 260.50,24.08 C262.70,25.27 267.20,28.15 270.50,30.47 C273.80,32.80 281.90,37.52 288.50,40.97 C295.10,44.42 301.85,48.05 303.50,49.05 C311.93,54.11 344.53,66.73 362.75,71.99 C366.74,73.14 370.00,74.48 370.00,74.96 C370.00,76.20 348.91,98.43 347.37,98.81 C346.01,99.15 327.56,92.56 312.00,86.19 C296.56,79.87 273.94,68.17 254.24,56.32 C250.19,53.88 249.45,54.08 240.80,59.89 C226.70,69.36 191.68,85.96 166.79,94.97 C154.28,99.50 122.23,108.28 110.00,110.53 C105.32,111.39 100.04,112.56 98.25,113.12 L 95.00 114.16 L 95.00 188.35 C95.00,265.72 95.20,270.35 99.56,291.75 C109.47,340.42 141.38,385.80 189.57,419.74 C205.63,431.05 240.30,450.79 248.77,453.44 C251.49,454.29 265.71,447.47 285.48,435.83 C296.95,429.07 314.70,417.31 319.93,413.00 C347.22,390.50 358.29,378.82 373.43,356.50 C385.45,338.80 394.36,319.19 399.13,300.00 C404.89,276.77 405.24,271.80 405.58,207.00 C405.76,174.27 405.92,145.98 405.95,144.13 C405.99,141.34 407.19,139.55 413.00,133.63 L 419.99 126.50 L 428.57 135.19 L 437.15 143.88 L 436.72 210.19 C436.24,282.85 436.43,280.20 429.49,309.50 C424.19,331.91 410.07,360.94 393.79,382.95 C371.59,412.96 337.71,441.89 298.50,464.30 C285.41,471.79 254.77,486.19 251.00,486.62 C248.76,486.88 246.06,486.29 243.50,484.97 ZM 238.75 431.73 L 229.00 426.55 L 229.00 361.28 L 229.00 296.00 L 249.89 296.00 C267.85,296.00 270.87,296.22 271.38,297.55 C272.17,299.60 272.14,423.47 271.35,425.52 C270.73,427.15 252.06,437.04 249.77,436.95 C249.07,436.93 244.11,434.58 238.75,431.73 ZM 202.31 410.34 C192.72,403.77 183.62,396.70 175.76,389.71 L 169.00 383.71 L 169.00 315.35 L 169.00 247.00 L 190.00 247.00 L 211.00 247.00 L 211.00 331.00 C211.00,382.55 210.64,415.00 210.06,415.00 C209.55,415.00 206.06,412.90 202.31,410.34 ZM 289.00 338.48 L 289.00 261.96 L 309.75 262.23 L 330.50 262.50 L 330.77 323.00 L 331.05 383.50 L 324.30 389.83 C314.33,399.19 292.50,415.00 289.55,415.00 C289.25,415.00 289.00,380.57 289.00,338.48 ZM 148.27 360.91 C147.04,358.94 143.73,354.21 140.92,350.41 C135.75,343.44 126.36,325.76 121.54,313.92 C116.05,300.45 112.49,282.51 111.01,260.91 C109.85,243.90 109.68,129.06 110.81,127.27 C111.53,126.13 145.83,117.00 149.39,117.00 C150.82,117.00 151.00,119.42 151.00,138.44 C151.00,150.40 151.41,160.13 151.92,160.45 C152.77,160.98 169.49,144.37 209.99,102.76 C218.95,93.56 228.59,84.58 231.39,82.82 C234.20,81.05 239.57,77.63 243.33,75.22 L 250.16 70.83 L 258.33 75.81 C262.82,78.55 269.76,82.45 273.75,84.47 C279.77,87.52 280.84,88.42 280.09,89.82 C279.59,90.74 264.63,106.29 246.84,124.37 C229.05,142.45 214.37,158.00 214.21,158.93 C214.03,159.92 216.09,162.66 219.21,165.56 C225.94,171.85 257.24,204.68 258.30,206.58 C258.74,207.36 259.68,208.00 260.39,208.00 C261.40,208.00 291.90,177.24 318.38,149.50 C338.62,128.30 362.12,103.94 374.27,91.56 L 389.04 76.50 L 378.32 66.18 C369.94,58.11 367.92,55.67 369.05,54.95 C369.85,54.44 371.34,54.02 372.36,54.02 C373.38,54.01 379.91,52.48 386.86,50.62 C393.81,48.76 406.92,45.36 416.00,43.07 C425.08,40.77 437.67,37.52 444.00,35.83 C461.46,31.18 460.00,31.24 460.00,35.13 C459.99,36.99 457.03,52.90 453.40,70.50 C449.77,88.10 445.96,108.07 444.93,114.89 C443.90,121.70 442.80,127.53 442.50,127.84 C442.19,128.15 436.98,123.47 430.92,117.45 L 419.91 106.50 L 405.71 121.10 C397.89,129.13 386.15,141.28 379.61,148.10 C373.07,154.92 360.46,167.93 351.60,177.00 C342.74,186.07 324.01,205.42 309.99,219.99 C295.97,234.56 279.77,251.34 274.00,257.29 C268.23,263.23 263.35,268.53 263.17,269.05 C262.46,271.07 260.65,269.64 250.25,258.87 C244.34,252.75 231.99,240.03 222.82,230.62 C213.64,221.20 201.04,208.19 194.82,201.69 L 183.50 189.88 L 167.50 205.95 L 151.50 222.02 L 151.00 293.26 L 150.50 364.50 L 148.27 360.91 ZM 349.00 282.20 L 349.00 200.00 L 369.50 200.00 L 390.00 200.00 L 390.00 230.04 C390.00,262.99 389.21,273.48 385.36,291.50 C382.02,307.16 379.55,314.07 371.56,330.18 C366.23,340.94 354.88,358.39 349.93,363.45 C349.36,364.04 349.00,332.88 349.00,282.20 Z" fill="#1e6761"/>
</g>
</svg>